<svg width="32" height="32" viewBox="0 0 32 32" fill="none" xmlns="http://www.w3.org/2000/svg">
  <defs>
    <filter id='shadow' y='-40%' x='-40%' width='180px' height='180%' color-interpolation-filters='sRGB'>
      <feDropShadow dx='1' dy='-0.9999999999999999' stdDeviation='1.2' flood-opacity='.5' />
    </filter>
  </defs>

  <g fill='none' transform='rotate(0)' filter='url(#shadow)'>
    <path
      d="M16.001 3H15.996L10 12.747L13.999 12.7486V15.9976L13.999 19.2807H9.999L16 29L21.999 19.2807L17.98 19.2823L17.978 15.9976V12.747L22 12.7486L16.001 3ZM15.998 5.29331L19.586 11.1233L16.999 11.1216V16.8102V20.9076H19.584L15.998 26.7018L12.413 20.9092L14.998 20.9076V16.8102L14.999 11.1233L12.413 11.1216L15.998 5.29331Z"
      fill="white" />
    <path
      d="M14.9985 16.8104V20.9078H12.4125L15.9985 26.702L19.5835 20.9078H16.9785V16.8104V11.1218H19.5855L15.9985 5.29347L12.4125 11.1218H14.9995L14.9985 16.8104Z"
      fill="black" />
  </g>
</svg>